<?xml version="1.0" encoding="utf-8"?>
<!-- Generator: Adobe Illustrator 23.0.4, SVG Export Plug-In . SVG Version: 6.00 Build 0)  -->
<svg version="1.1" id="Layer_1" xmlns="http://www.w3.org/2000/svg" xmlns:xlink="http://www.w3.org/1999/xlink" x="0px" y="0px"
	 viewBox="0 0 1565 765" style="enable-background:new 0 0 1565 765;" xml:space="preserve">
<style type="text/css">
	.st0{fill:none;}
	.st1{fill:#FFFFFF;}
</style>
<rect x="531" y="1968" class="st0" width="96" height="47"/>
<g>
	<path class="st1" d="M205.8,28.6L8,624.5h66.4l52-162.6h158.7l50.7,162.6h69L205.8,28.6z M131.6,415l69-213.4L281.2,415H131.6z"/>
	<polygon class="st1" points="465.3,214.6 536.8,214.6 633.1,486.6 745,214.6 806.2,214.6 586.3,765 527.7,765 607.1,564.6 	"/>
	<rect x="901.8" y="50.7" class="st1" width="127.5" height="52"/>
	<rect x="965.5" y="89.7" class="st1" width="63.8" height="538.7"/>
	<path class="st1" d="M1457.4,542.5V323.9c0,0-11.7-98.9-105.4-119.7S1208.9,238,1208.9,238l20.8,48.1c41-28,75.3-52.5,128.2-26.7
		c55.9,27.3,40.3,110.6,40.3,110.6s-70.3-45.5-128.8-18.2c-58.6,27.3-121,109.3-87.2,204.3c33.8,95,113.2,84.6,161.3,79.4
		s65.1-50.7,65.1-50.7s0,2.6,0,27.3c1.3,24.7,15.6,25.4,15.6,25.4h55.3v-13C1449.6,605,1457.4,542.5,1457.4,542.5z M1396.9,521
		c0,0-32.5,69-95,63.8c-62.5-5.2-69-74.2-69-91.1s20.8-149.6,163.9-69V521z"/>
	<g>
		<path class="st1" d="M1515.5,221.6v12.7h-7v-33.2h9.7c4.5,0,7.8,0.8,10,2.5c2.2,1.6,3.2,4.1,3.2,7.5c0,2-0.5,3.7-1.6,5.2
			s-2.6,2.7-4.6,3.6c5,7.5,8.3,12.3,9.8,14.5h-7.8l-7.9-12.7H1515.5z M1515.5,215.9h2.3c2.2,0,3.9-0.4,4.9-1.1
			c1.1-0.7,1.6-1.9,1.6-3.5c0-1.6-0.5-2.7-1.6-3.4c-1.1-0.7-2.8-1-5-1h-2.1V215.9z"/>
	</g>
	<g>
		<path class="st1" d="M1520.6,255.1c-20.1,0-36.4-16.3-36.4-36.4s16.3-36.4,36.4-36.4s36.4,16.3,36.4,36.4
			S1540.7,255.1,1520.6,255.1z M1520.6,187.4c-17.2,0-31.2,14-31.2,31.2s14,31.2,31.2,31.2s31.2-14,31.2-31.2
			S1537.8,187.4,1520.6,187.4z"/>
	</g>
</g>
</svg>
