<?xml version="1.0" encoding="utf-8"?>
<!-- Generator: Adobe Illustrator 23.0.4, SVG Export Plug-In . SVG Version: 6.00 Build 0)  -->
<svg version="1.1" id="Layer_1" xmlns="http://www.w3.org/2000/svg" xmlns:xlink="http://www.w3.org/1999/xlink" x="0px" y="0px"
	 viewBox="0 0 2164 765" style="enable-background:new 0 0 2164 765;" xml:space="preserve">
<style type="text/css">
	.st0{fill:#310B0A;}
	.st1{fill:#D1CCC6;}
	.st2{fill:#8F847E;}
	.st3{fill:none;}
</style>
<g>
	<path class="st0" d="M223,103L71,561h51l40-125h122l39,125h53L223,103z M166,400l53-164l62,164H166z"/>
	<polygon class="st0" points="414,246 469,246 543,455 629,246 676,246 507,669 462,669 523,515 	"/>
	<rect x="741" y="120" class="st0" width="98" height="40"/>
	<rect x="790" y="150" class="st0" width="49" height="414"/>
	<path class="st0" d="M1155,498V330c0,0-9-76-81-92s-110,26-110,26l16,37c31.5-21.5,57.9-40.3,98.5-20.5c43,21,31,85,31,85
		s-54-35-99-14s-93,84-67,157s87,65,124,61s50-39,50-39s0,2,0,21c1,19,12,19.5,12,19.5h42.5v-10C1149,546,1155,498,1155,498z
		 M1108.5,481.5c0,0-25,53-73,49s-53-57-53-70s16-115,126-53V481.5z"/>
	<g>
		<path class="st0" d="M1198.1,268.3v9.8h-5.4v-25.5h7.4c3.5,0,6,0.6,7.7,1.9c1.7,1.3,2.5,3.2,2.5,5.8c0,1.5-0.4,2.8-1.2,4
			s-2,2.1-3.5,2.7c3.8,5.7,6.3,9.4,7.5,11.1h-6l-6.1-9.8H1198.1z M1198.1,263.9h1.7c1.7,0,3-0.3,3.8-0.9s1.2-1.5,1.2-2.7
			s-0.4-2.1-1.2-2.6c-0.8-0.5-2.1-0.8-3.9-0.8h-1.6V263.9z"/>
	</g>
	<g>
		<path class="st0" d="M1202,294c-15.4,0-28-12.6-28-28s12.6-28,28-28s28,12.6,28,28S1217.4,294,1202,294z M1202,242
			c-13.2,0-24,10.8-24,24c0,13.2,10.8,24,24,24s24-10.8,24-24S1215.2,242,1202,242z"/>
	</g>
	<circle class="st1" cx="1776.5" cy="409.5" r="313.5"/>
	<g>
		<g>
			<path class="st2" d="M1581.9,310.9c3.3-0.7,8.6-1.2,14-1.2c7.7,0,12.6,1.3,16.3,4.3c3.1,2.3,4.9,5.8,4.9,10.5
				c0,5.7-3.8,10.7-10,13v0.2c5.6,1.4,12.2,6.1,12.2,14.9c0,5.1-2,9-5,11.9c-4.1,3.8-10.8,5.5-20.5,5.5c-5.3,0-9.3-0.4-11.9-0.7
				V310.9z M1589.5,335.1h7c8.1,0,12.8-4.2,12.8-9.9c0-7-5.3-9.7-13-9.7c-3.5,0-5.5,0.3-6.8,0.5V335.1z M1589.5,363.6
				c1.5,0.3,3.7,0.4,6.4,0.4c7.9,0,15.2-2.9,15.2-11.5c0-8.1-7-11.4-15.3-11.4h-6.3L1589.5,363.6L1589.5,363.6z"/>
			<path class="st2" d="M1641.6,340.1c0-5-0.1-9.3-0.4-13.3h6.8l0.3,8.4h0.4c1.9-5.7,6.6-9.3,11.8-9.3c0.9,0,1.5,0.1,2.2,0.3v7.3
				c-0.8-0.2-1.6-0.3-2.6-0.3c-5.5,0-9.3,4.1-10.4,9.9c-0.2,1.1-0.4,2.3-0.4,3.6v22.7h-7.7L1641.6,340.1L1641.6,340.1z"/>
			<path class="st2" d="M1691.7,314.8c0.1,2.6-1.8,4.8-4.9,4.8c-2.7,0-4.7-2.1-4.7-4.8c0-2.7,2-4.8,4.8-4.8
				C1689.9,310,1691.7,312.1,1691.7,314.8z M1683.1,369.4v-42.6h7.7v42.6H1683.1z"/>
			<path class="st2" d="M1752.7,326.8c-0.2,3.1-0.4,6.5-0.4,11.7v24.7c0,9.8-1.9,15.8-6.1,19.4c-4.1,3.9-10.1,5.1-15.5,5.1
				c-5.1,0-10.7-1.2-14.2-3.5l1.9-5.9c2.8,1.8,7.2,3.3,12.5,3.3c7.9,0,13.7-4.1,13.7-14.9v-4.8h-0.2c-2.4,4-7,7.1-13.6,7.1
				c-10.6,0-18.1-9-18.1-20.8c0-14.4,9.4-22.6,19.2-22.6c7.4,0,11.4,3.9,13.3,7.4h0.2l0.4-6.4h6.9V326.8z M1744.7,343.6
				c0-1.3-0.1-2.5-0.4-3.5c-1.4-4.5-5.2-8.2-10.8-8.2c-7.4,0-12.7,6.2-12.7,16.1c0,8.4,4.2,15.3,12.6,15.3c4.8,0,9.1-3,10.7-7.9
				c0.4-1.3,0.6-2.8,0.6-4.1L1744.7,343.6L1744.7,343.6z"/>
			<path class="st2" d="M1777.5,306.9h7.7v26.6h0.2c1.2-2.2,3.2-4.1,5.5-5.5c2.3-1.3,5-2.2,7.9-2.2c5.7,0,14.9,3.5,14.9,18.2v25.3
				h-7.7v-24.5c0-6.9-2.6-12.7-9.9-12.7c-5,0-9,3.5-10.4,7.7c-0.4,1.1-0.5,2.2-0.5,3.7v25.7h-7.7V306.9z"/>
			<path class="st2" d="M1847.6,314.5v12.2h11.1v5.9h-11.1v23c0,5.3,1.5,8.3,5.8,8.3c2,0,3.5-0.3,4.5-0.5l0.4,5.8
				c-1.5,0.6-3.9,1.1-6.9,1.1c-3.6,0-6.5-1.1-8.4-3.3c-2.2-2.3-3-6.1-3-11.1v-23.2h-6.6v-5.9h6.6v-10.2L1847.6,314.5z"/>
			<path class="st2" d="M1883.5,349.5c0.2,10.5,6.9,14.8,14.6,14.8c5.5,0,8.9-1,11.8-2.2l1.3,5.5c-2.7,1.2-7.4,2.6-14.2,2.6
				c-13.1,0-20.9-8.6-20.9-21.5s7.6-23,20-23c13.9,0,17.6,12.2,17.6,20.1c0,1.6-0.2,2.8-0.3,3.6h-29.9V349.5z M1906.3,343.9
				c0.1-4.9-2-12.6-10.7-12.6c-7.8,0-11.3,7.2-11.9,12.6H1906.3z"/>
			<path class="st2" d="M1935.6,340.1c0-5-0.1-9.3-0.4-13.3h6.8l0.3,8.4h0.4c1.9-5.7,6.6-9.3,11.8-9.3c0.9,0,1.5,0.1,2.2,0.3v7.3
				c-0.8-0.2-1.6-0.3-2.6-0.3c-5.5,0-9.3,4.1-10.4,9.9c-0.2,1.1-0.4,2.3-0.4,3.6v22.7h-7.7L1935.6,340.1L1935.6,340.1z"/>
		</g>
		<g>
			<path class="st2" d="M1577.9,421.9c3.3-0.7,8.6-1.2,14-1.2c7.7,0,12.6,1.3,16.3,4.3c3.1,2.3,4.9,5.8,4.9,10.5
				c0,5.7-3.8,10.7-10,13v0.2c5.6,1.4,12.2,6.1,12.2,14.9c0,5.1-2,9-5,11.9c-4.1,3.8-10.8,5.5-20.5,5.5c-5.3,0-9.3-0.4-11.9-0.7
				V421.9z M1585.5,446.1h7c8.1,0,12.8-4.2,12.8-9.9c0-7-5.3-9.7-13-9.7c-3.5,0-5.5,0.3-6.8,0.5V446.1z M1585.5,474.6
				c1.5,0.3,3.7,0.4,6.4,0.4c7.9,0,15.2-2.9,15.2-11.5c0-8.1-7-11.4-15.3-11.4h-6.3L1585.5,474.6L1585.5,474.6z"/>
			<path class="st2" d="M1639.6,460.5c0.2,10.5,6.9,14.8,14.6,14.8c5.5,0,8.9-1,11.8-2.2l1.3,5.5c-2.7,1.2-7.4,2.6-14.2,2.6
				c-13.1,0-20.9-8.6-20.9-21.5s7.6-23,20-23c13.9,0,17.6,12.2,17.6,20.1c0,1.6-0.2,2.8-0.3,3.6h-29.9V460.5z M1662.3,454.9
				c0.1-4.9-2-12.6-10.7-12.6c-7.8,0-11.3,7.2-11.9,12.6H1662.3z"/>
			<path class="st2" d="M1712.5,480.4l-0.6-5.4h-0.3c-2.4,3.3-7,6.3-13,6.3c-8.6,0-13-6.1-13-12.2c0-10.3,9.2-15.9,25.6-15.8v-0.9
				c0-3.5-1-9.9-9.7-9.9c-4,0-8.1,1.2-11.1,3.2l-1.8-5.1c3.5-2.3,8.6-3.8,14-3.8c13,0,16.2,8.9,16.2,17.4v15.9
				c0,3.7,0.2,7.3,0.7,10.2L1712.5,480.4L1712.5,480.4z M1711.4,458.6c-8.4-0.2-18,1.3-18,9.6c0,5,3.3,7.4,7.3,7.4
				c5.5,0,9.1-3.5,10.3-7.1c0.3-0.8,0.4-1.7,0.4-2.5L1711.4,458.6L1711.4,458.6z"/>
			<path class="st2" d="M1776.6,468.8c0,4.4,0.1,8.3,0.4,11.6h-6.9l-0.4-7h-0.2c-2,3.4-6.5,7.9-14.1,7.9c-6.7,0-14.7-3.7-14.7-18.7
				v-24.9h7.7v23.6c0,8.1,2.5,13.6,9.5,13.6c5.2,0,8.8-3.6,10.2-7c0.4-1.1,0.7-2.6,0.7-4v-26.1h7.7v31H1776.6z"/>
			<path class="st2" d="M1808.4,425.5v12.2h11.1v5.9h-11.1v23c0,5.3,1.5,8.3,5.8,8.3c2,0,3.5-0.3,4.5-0.5l0.4,5.8
				c-1.5,0.6-3.9,1.1-6.9,1.1c-3.6,0-6.5-1.1-8.4-3.3c-2.2-2.3-3-6.1-3-11.1v-23.2h-6.6v-5.9h6.6v-10.2L1808.4,425.5z"/>
			<path class="st2" d="M1841.4,437.8l9.3,25.2c1,2.8,2,6.2,2.7,8.7h0.2c0.8-2.6,1.7-5.8,2.7-8.9l8.4-25h8.2l-11.6,30.4
				c-5.5,14.6-9.3,22.1-14.6,26.7c-3.8,3.3-7.6,4.7-9.5,5l-1.9-6.5c1.9-0.6,4.5-1.8,6.8-3.8c2.1-1.7,4.8-4.7,6.5-8.6
				c0.4-0.8,0.6-1.4,0.6-1.8s-0.2-1.1-0.5-2l-15.8-39.2h8.5V437.8z"/>
		</g>
	</g>
</g>
<rect x="531" y="3695" class="st3" width="96" height="47"/>
</svg>
